<svg version="1" xmlns="http://www.w3.org/2000/svg" width="682.667" height="682.667" viewBox="0 0 512.000000 512.000000"><path d="M0 256v256h512V0H0v256zM269 47.4c3 1.3 40.2 22.3 82.5 46.8 82.2 47.6 82.4 47.7 81 54.3-.3 1.6-1.8 4.2-3.3 5.6-3.3 3.2-156 91.7-161.7 93.7-5.7 2-18.9 1.8-24.4-.4-7.8-3.1-159.5-91.5-161.8-94.2-3.4-4-3-8.5 1-12.6 3.1-3.3 152.6-90.3 161.2-93.8 6.2-2.6 18.7-2.3 25.5.6zm-112.4 171c81.7 47.1 81.4 46.9 87.1 58.4l2.8 5.7.3 85.3c.3 94.6.6 89.9-6.3 92.2-1.9.6-4.5.8-5.7.4-1.3-.4-36.3-20.2-77.8-44.2-49.1-28.2-77-44.9-79.8-47.6-2.4-2.2-5.7-7-7.5-10.6l-3.2-6.5-.3-84.5c-.3-88.8-.3-88.4 4.2-91.6 4.9-3.6 6.7-2.7 86.2 43zm285-42.9c4.5 3.1 4.5 2.8 4.2 91.5l-.3 84.5-3.2 6.5c-1.8 3.6-5.1 8.4-7.5 10.6-2.8 2.8-29.9 19-79.3 47.4-41.2 23.8-76.2 43.7-77.7 44.2-1.9.7-3.9.6-6.3-.2-6.9-2.3-6.6 2.5-6.3-92.2l.3-85.3 3-6c1.6-3.3 5-8 7.5-10.5 3.3-3.3 24-15.7 74.9-45 38.7-22.3 73.1-42 76.4-43.8 6.5-3.5 11.1-4 14.3-1.7z"/><path d="M250 57.6c-10.3 1.8-17.1 4.7-21.2 9.1-10.3 10.8-1.3 23.6 19.2 27.3 17 3.1 35.9-4.2 39.1-15 1-3.3.9-4.4-1-8.2-2.4-5-6.9-8.3-14.6-10.9-5.6-1.8-17.1-3.1-21.5-2.3zM244.3 199.5c-18.5 5.2-25.2 17.4-15.1 27.2 10.2 9.8 32.1 11.9 47.2 4.4 6.3-3.1 11.6-9.3 11.6-13.5 0-3.5-3.9-10-7.4-12.4-9.2-6.2-25.4-8.8-36.3-5.7zM141 290.2c-3 1.6-7 9.1-7 13.3 0 4.5 2.6 13.8 5.4 19.3 6.5 12.8 16.4 21 26.4 21.9 5.7.5 5.9.5 8.9-3.1 3.7-4.2 4.8-8.6 3.9-16-1.5-11.5-11.9-27.2-22.2-33.2-5-3-12-4-15.4-2.2zM413.3 198.6c-6.4 3.1-16.2 13.4-19.7 20.6-7.7 15.9-5 31 6 32.5 15.6 2.1 36.8-25.5 33.9-44.3-.5-3.5-1.6-5.7-4-8.1-4.2-4.2-8.9-4.4-16.2-.7zM359.7 290.4c-11.4 4.2-23.2 19.7-25.8 33.8-1.6 8.6-.6 13.3 3.7 17.6 3.3 3.3 3.7 3.4 9 2.9 6.5-.7 13.6-4.8 18.8-10.9 4.7-5.5 10.1-16.2 11.6-22.9 3.4-15.4-4.8-25.1-17.3-20.5zM303.7 384.4c-10.8 4-22.8 19.1-25.6 32.4-1.5 7.4-1.4 11 .8 15.8 2.3 5.1 6.2 6.9 12.8 6 13.7-1.9 28.2-20.3 30-38.1 1.2-12.6-7.2-20.1-18-16.1z"/></svg>